<svg xmlns="http://www.w3.org/2000/svg" viewBox="0 0 1280 720">
	<defs>
		<radialGradient id="a" cx="640" cy="480" r="640" gradientTransform="translate(-162.3 -35)" gradientUnits="userSpaceOnUse">
			<stop offset="0" stop-color="#483b5c"/>
			<stop offset="1" stop-color="#1a1622"/>
		</radialGradient>
	</defs>
	<path fill="url(#a)" d="M0 0h1280v720H0z" style="paint-order:stroke fill markers"/>
	<path fill="#b4b5ba" d="m370.8 296-37 64 110.8 64z"/>
	<path fill="#dbdcde" d="M370.8 296v128h-73.9z"/>
	<path fill="#fff" d="m370.8 296-37 64 37 21.3zm579.6 35.3-23.5 60h8.9l19.2-53 19.2 53h8.8l-23.3-60c-1.7-4.4-7.5-4.4-9.3 0zm-375.6 0-23.5 60h8.8l19.2-53 19.2 53h8.9l-23.4-60c-1.7-4.4-7.4-4.4-9.2 0zm60.5-3.3a4 4 0 0 0-3.9 4v59.3h26.7a4 4 0 0 0 4-3.8V385h-22.5v-57zm54.3 0a4 4 0 0 0-4 4v34c0 8.7 2.2 15.2 6.5 19.5 4.3 4.3 10 6.5 17.1 6.5a23 23 0 0 0 17.2-6.5c4.3-4.3 6.5-10.8 6.5-19.5v-34a4 4 0 0 0-4-4h-4.2v38c0 6.2-1.4 10.8-4 13.8s-6.5 4.5-11.3 4.5a15 15 0 0 1-11.4-4.4c-2.8-3-4.1-7.6-4.1-13.9v-38zm77 .4c-2.3 0-4.6 1-5.3 3v60h8.2v-49.5l20 49.4h7l20-49.4v49.4h8.2v-60c-.7-2-3-3-5.3-3s-4.6 1.1-5.4 3L793 381l-21-49.6c-.8-2-3.2-3-5.4-3zm91-.4c-1.9 0-4 1.7-4 4v59.3h8.3v-50l32.9 50h8.1V332a4 4 0 0 0-4-4h-4.2v50.2l-30.6-46.6c-2.4-3.6-3.2-3.5-6.5-3.5z"/>
</svg>